# xmcd
#
# Track frame offsets:
#	150
#	15843
#	28521
#	45233
#	60184
#	77998
#	90984
#	105595
#	123083
#	138787
#	158473
#	172175
#	186909
#	205465
#
# Disc length: 2969 seconds
#
# Revision: 1
# Processed by: cddbd v1.4PL0 Copyright (c) Steve Scherf et al.
# Submitted via: audiograbber 1.81.02
#
DISCID=9c0b970e
DTITLE=Michael Mason - For All Its Worth
DYEAR=2002
DGENRE=Country
TTITLE0=Cape Lonely
TTITLE1=Mail Myself To Mexico
TTITLE2=Someone To Talk To
TTITLE3=June '89
TTITLE4=Lyin' All Day, Cryin' All Night
TTITLE5=Sweet Southern Delight
TTITLE6=Blue Jean Kinda Guy
TTITLE7=House Of Mirrors
TTITLE8=For All Its Worth
TTITLE9=Your Love Is All I Need
TTITLE10=Love Me For Life
TTITLE11=If You Wanna Dance With Me
TTITLE12=Great Fixer Upper
TTITLE13=Right Up 'Til The End
EXTD=
EXTT0=
EXTT1=
EXTT2=
EXTT3=
EXTT4=
EXTT5=
EXTT6=
EXTT7=
EXTT8=
EXTT9=
EXTT10=
EXTT11=
EXTT12=
EXTT13=
PLAYORDER=
